<svg width="16" height="16" viewBox="0 0 16 16" fill="none" xmlns="http://www.w3.org/2000/svg">
<mask id="path-1-inside-1_1371_232" fill="white">
<path d="M9.66659 6.16675H1.33325C1.05992 6.16675 0.833252 5.94008 0.833252 5.66675C0.833252 5.39341 1.05992 5.16675 1.33325 5.16675H9.66659C9.93992 5.16675 10.1666 5.39341 10.1666 5.66675C10.1666 5.94008 9.93992 6.16675 9.66659 6.16675Z"/>
</mask>
<path d="M9.66659 6.16675H1.33325C1.05992 6.16675 0.833252 5.94008 0.833252 5.66675C0.833252 5.39341 1.05992 5.16675 1.33325 5.16675H9.66659C9.93992 5.16675 10.1666 5.39341 10.1666 5.66675C10.1666 5.94008 9.93992 6.16675 9.66659 6.16675Z" fill="white"/>
<path d="M9.66659 5.16675H1.33325V7.16675H9.66659V5.16675ZM1.33325 5.16675C1.6122 5.16675 1.83325 5.3878 1.83325 5.66675H-0.166748C-0.166748 6.49237 0.507634 7.16675 1.33325 7.16675V5.16675ZM1.83325 5.66675C1.83325 5.9457 1.6122 6.16675 1.33325 6.16675V4.16675C0.507634 4.16675 -0.166748 4.84113 -0.166748 5.66675H1.83325ZM1.33325 6.16675H9.66659V4.16675H1.33325V6.16675ZM9.66659 6.16675C9.38763 6.16675 9.16659 5.9457 9.16659 5.66675H11.1666C11.1666 4.84113 10.4922 4.16675 9.66659 4.16675V6.16675ZM9.16659 5.66675C9.16659 5.3878 9.38763 5.16675 9.66659 5.16675V7.16675C10.4922 7.16675 11.1666 6.49237 11.1666 5.66675H9.16659Z" fill="white" mask="url(#path-1-inside-1_1371_232)"/>
<mask id="path-3-inside-2_1371_232" fill="white">
<path d="M5.33333 11.5H4C3.72667 11.5 3.5 11.2733 3.5 11C3.5 10.7267 3.72667 10.5 4 10.5H5.33333C5.60667 10.5 5.83333 10.7267 5.83333 11C5.83333 11.2733 5.60667 11.5 5.33333 11.5Z"/>
</mask>
<path d="M5.33333 11.5H4C3.72667 11.5 3.5 11.2733 3.5 11C3.5 10.7267 3.72667 10.5 4 10.5H5.33333C5.60667 10.5 5.83333 10.7267 5.83333 11C5.83333 11.2733 5.60667 11.5 5.33333 11.5Z" fill="white"/>
<path d="M5.33333 10.5H4V12.5H5.33333V10.5ZM4 10.5C4.27895 10.5 4.5 10.721 4.5 11H2.5C2.5 11.8256 3.17438 12.5 4 12.5V10.5ZM4.5 11C4.5 11.279 4.27895 11.5 4 11.5V9.5C3.17438 9.5 2.5 10.1744 2.5 11H4.5ZM4 11.5H5.33333V9.5H4V11.5ZM5.33333 11.5C5.05438 11.5 4.83333 11.279 4.83333 11H6.83333C6.83333 10.1744 6.15895 9.5 5.33333 9.5V11.5ZM4.83333 11C4.83333 10.721 5.05438 10.5 5.33333 10.5V12.5C6.15895 12.5 6.83333 11.8256 6.83333 11H4.83333Z" fill="white" mask="url(#path-3-inside-2_1371_232)"/>
<mask id="path-5-inside-3_1371_232" fill="white">
<path d="M9.66667 11.5H7C6.72667 11.5 6.5 11.2733 6.5 11C6.5 10.7267 6.72667 10.5 7 10.5H9.66667C9.94 10.5 10.1667 10.7267 10.1667 11C10.1667 11.2733 9.94 11.5 9.66667 11.5Z"/>
</mask>
<path d="M9.66667 11.5H7C6.72667 11.5 6.5 11.2733 6.5 11C6.5 10.7267 6.72667 10.5 7 10.5H9.66667C9.94 10.5 10.1667 10.7267 10.1667 11C10.1667 11.2733 9.94 11.5 9.66667 11.5Z" fill="white"/>
<path d="M9.66667 10.5H7V12.5H9.66667V10.5ZM7 10.5C7.27895 10.5 7.5 10.721 7.5 11H5.5C5.5 11.8256 6.17438 12.5 7 12.5V10.5ZM7.5 11C7.5 11.279 7.27895 11.5 7 11.5V9.5C6.17438 9.5 5.5 10.1744 5.5 11H7.5ZM7 11.5H9.66667V9.5H7V11.5ZM9.66667 11.5C9.38772 11.5 9.16667 11.279 9.16667 11H11.1667C11.1667 10.1744 10.4923 9.5 9.66667 9.5V11.5ZM9.16667 11C9.16667 10.721 9.38772 10.5 9.66667 10.5V12.5C10.4923 12.5 11.1667 11.8256 11.1667 11H9.16667Z" fill="white" mask="url(#path-5-inside-3_1371_232)"/>
<path d="M11.7066 13.6666H4.29325C3.99582 13.6666 3.73077 13.656 3.49427 13.6352C3.73838 13.6534 4.00484 13.6599 4.29325 13.6599H11.6999C12.0065 13.6599 12.2883 13.6525 12.5448 13.6316C12.2985 13.6548 12.0206 13.6666 11.7066 13.6666ZM1.92723 13.0776C2.05322 13.2019 2.19561 13.2987 2.35068 13.3745C2.17458 13.2932 2.03397 13.1958 1.92014 13.083C1.82054 12.9844 1.73283 12.8654 1.65762 12.7202C1.72957 12.8501 1.81807 12.97 1.92723 13.0776ZM1.33325 10.7333C1.33325 10.7456 1.33326 10.758 1.33329 10.7702C1.33326 10.7602 1.33325 10.7501 1.33325 10.7399V10.7333ZM14.0783 13.0828C13.9439 13.2163 13.772 13.3283 13.5481 13.4174C13.74 13.3363 13.9148 13.2267 14.0659 13.0776C14.2074 12.9382 14.3141 12.7781 14.3951 12.6026C14.3091 12.8026 14.2031 12.9587 14.0783 13.0828ZM14.6599 10.7345C14.6601 10.804 14.6597 10.8718 14.6587 10.9378C14.6595 10.8709 14.6599 10.8027 14.6599 10.7333L14.6599 10.7345ZM1.92723 2.91552C1.84946 2.99219 1.78217 3.07512 1.72388 3.16344C1.783 3.06925 1.84849 2.98777 1.92014 2.9168C1.98461 2.85293 2.05767 2.79398 2.14091 2.7401C2.06544 2.79151 1.99403 2.84966 1.92723 2.91552Z" fill="white" stroke="white"/>
<path d="M13.3333 6.33321L13.3333 2.33744V3.53988L13.3333 6.33321Z" fill="white" stroke="white"/>
<path d="M12 4.16663C11.8734 4.16663 11.7467 4.11996 11.6467 4.01996C11.4534 3.82663 11.4534 3.50663 11.6467 3.31329L12.98 1.97996C13.1734 1.78663 13.4934 1.78663 13.6867 1.97996C13.88 2.17329 13.88 2.49329 13.6867 2.68663L12.3534 4.01996C12.2534 4.11996 12.1267 4.16663 12 4.16663Z" fill="white"/>
</svg>
