<?xml version="1.0" encoding="utf-8"?>
<!-- Generator: Adobe Illustrator 27.9.0, SVG Export Plug-In . SVG Version: 6.00 Build 0)  -->
<svg version="1.1" id="Layer_1" xmlns="http://www.w3.org/2000/svg" xmlns:xlink="http://www.w3.org/1999/xlink" x="0px" y="0px"
	 viewBox="0 0 2500 600" style="enable-background:new 0 0 2500 600;" xml:space="preserve">
<style type="text/css">
	.st0{fill:#2F27CE;}
	.st1{fill:#1D1D1D;}
	.st2{fill:#7670B3;}
</style>
<g>
	<g>
		<g>
			<g>
				<path class="st0" d="M2279.7,76.8l43.1,118.2c17.3,47.5-7.4,99.9-54.5,117.1l-105.2,38.4c-12.5,4.6-19,18.5-14.4,31l12.7,34.7
					c2.6,7.1-1.1,14.9-8.1,17.5l-37.5,13.7c-7.1,2.6-14.9-1.1-17.5-8.1l-12.7-34.7c-17.3-47.4,7.1-99.8,54.5-117.1l105.2-38.4
					c12.5-4.6,19-18.5,14.4-31l-43.1-118.2c-4.6-12.5-18.5-19-31-14.4l-105.2,38.4c-12.5,4.6-19,18.5-14.4,31l35.6,97.6
					c2.5,7-1,14.7-8,17.2l-37.9,13.8c-7,2.5-14.7-1-17.2-8l-35.6-97.6c-17.3-47.4,7.1-99.8,54.5-117.1l105.2-38.4
					C2209.7,5.1,2262.4,29.3,2279.7,76.8z"/>
			</g>
		</g>
		<g>
			<g>
				<path class="st1" d="M2317,335.4l37.6-13.7c7-2.6,14.8,1.1,17.4,8.1l33.7,92.4c17.2,47.2-7.3,99.9-54.5,117.1L2246,577.7
					c-47.4,17.3-99.8-7.1-117.1-54.5l-7.2-19.9c-2.5-6.9,1-14.6,8-17.1c0,0,28.8-10.5,38.5-14s13.6-0.3,16.3,7
					c2.7,7.3,7.6,20.9,7.6,20.9c4.6,12.6,18.4,19,31,14.4l105.2-38.4c12.5-4.6,19-18.5,14.4-31l-33.7-92.4
					C2306.3,345.8,2310,338,2317,335.4z"/>
			</g>
		</g>
	</g>
	<g>
		<g>
			<path class="st1" d="M503.1,172.3c3.2,0,5-1.7,5.5-5.1v-35.9c0-3-1.8-4.7-5.5-5.1h-38.7c-3.2,0-5,1.7-5.5,5.1v35.9
				c0,3,1.8,4.7,5.5,5.1H503.1z"/>
			<path class="st1" d="M570.3,359.2c-3.2,0-5,1.7-5.5,5.1v35.9c0,3,1.9,4.7,5.5,5.1h88.4c3.2,0,5-1.7,5.5-5.1v-35.9
				c0-3-1.8-4.7-5.5-5.1H570.3z"/>
			<path class="st1" d="M765.4,80.4h-38.7c-3.2,0-5.1,1.7-5.5,5.1v175.1c0,10.8-6.8,17.2-20.4,19h-19c-0.2-0.2-0.2-0.4-0.5-0.5h-21
				c-11.7,0-18.5-6.3-20.4-19v-50.8c0-3-1.8-4.7-5.5-5.1h-38.1c-4.8,0-7.2,1.9-7.2,5.6v50.8c0,10.8-6.8,17.2-20.4,19h-19
				c-0.2-0.2-0.2-0.4-0.5-0.5h-21c-11.7,0-18.5-6.3-20.4-19v-50.8c0-3-1.8-4.7-5.5-5.1h-38.1c-4.8,0-7.2,1.9-7.2,5.6v50.8
				c0,10.8-6.8,17.2-20.4,19h-19.5h-1.5h-19.5c-11.7,0-18.5-6.3-20.4-19v-37c0-8.8-1.8-17.3-5.5-25.7c-14.5-26.4-36-39.5-64.7-39.5
				h-40.3v-0.5c0.7,0,16.8-8.6,48.1-25.7c17.7-8.3,26.5-14.1,26.5-17.5c0-1.5-4.2-8.7-12.7-21.6c-4.8-9.2-8.5-13.9-11.1-13.9h-2.8
				c-4.8,2-45.1,23.6-121,64.7c-14,6.4-21,11.3-21,14.9v40.6c0,3,1.8,4.7,5.5,5.1H305c11.7,0,18.5,6.3,20.4,19v37
				c0,10.8-6.8,17.2-20.4,19H82.3v46.2H305c16.8,0,31.9-5.1,45.3-15.4c13.4,10.3,28.5,15.4,45.3,15.4h19.5h1.5h19.5
				c16.7,0,32.2-5.3,46.4-15.9c13.4,10.3,28.5,15.4,45.3,15.4h19c0.2,0.2,0.2,0.5,0.5,0.5h21c16.7,0,32.2-5.3,46.4-15.9
				c13.4,10.3,28.5,15.4,45.3,15.4h19c0.2,0.2,0.2,0.5,0.5,0.5h21c9.4,0,18.7-1.7,27.6-5.1c28.4-13.5,42.6-33.5,42.6-60.1V85.5
				C770.9,82.6,769.1,80.9,765.4,80.4z"/>
		</g>
		<g>
			<g>
				<path class="st1" d="M822.7,280.5h38.7c3.7,0.5,5.5,2.2,5.5,5.1v35.9c-0.5,3.4-2.3,5.1-5.5,5.1h-38.7c-3.7-0.4-5.5-2.2-5.5-5.1
					v-35.9C817.7,282.2,819.5,280.5,822.7,280.5z"/>
			</g>
		</g>
		<g>
			<path class="st0" d="M1063.6,359.2c-3.2,0-5,1.7-5.5,5.1v35.9c0,3,1.8,4.7,5.5,5.1h38.7c3.2,0,5-1.7,5.5-5.1v-35.9
				c0-3-1.8-4.7-5.5-5.1H1063.6z"/>
			<path class="st0" d="M1160.7,204.4c-3.2,0-5,1.7-5.5,5.1v51.1c0,10.8-6.8,17.2-20.5,19H911.4v46.2h223.3c9.5,0,18.7-1.7,27.6-5.1
				c28.4-13.5,42.6-33.5,42.6-60.1v-51.1c0-3-1.8-4.7-5.5-5.1H1160.7z"/>
			<path class="st0" d="M1890.2,198c-14.5-26.4-36-39.5-64.7-39.5h-22.9h-40.3h-15.8c-28.6,0-50.2,13.2-64.7,39.5
				c-3.7,8.3-5.5,16.9-5.5,25.7v14.7c0.5,3.4,2.3,5.1,5.5,5.1h38.7c3.7-0.5,5.5-2.2,5.5-5.1v-14.7c2-12.7,8.8-19,20.4-19h15.8h63.3
				c11.7,0,18.5,6.3,20.4,19v37c0,10.8-6.8,17.2-20.4,19h-146.6h-1.5h-19.5c-10.4,0-17.1-5.3-19.9-15.9v-49c0-3-1.8-4.7-5.5-5.1
				h-39.3c-3.2,0-5,1.7-5.5,5.1v49c-2.8,10.6-9.4,15.9-19.9,15.9h-27.6c-10.5,0-17.1-5.3-19.9-15.9v-49c0-3-1.9-4.7-5.5-5.1h-39.2
				c-3.2,0-5,1.7-5.5,5.1v49c-2.8,10.6-9.5,15.9-19.9,15.9h-27.6c-11.7,0-18.5-6.3-20.4-19v-46.5c0-2.6-1.7-4.2-5-4.6h-39.8
				c-2.8,0-4.5,1.5-5,4.6v46.5c0,10.8-6.8,17.2-20.4,19h-0.2h-20.8h-0.2c-11.7,0-18.5-6.3-20.4-19V85.5c0-3-1.8-4.7-5.5-5.1h-38.7
				c-3.2,0-5,1.7-5.5,5.1v175.1c0,8.8,1.8,17.4,5.5,25.7c14.5,26.4,36,39.5,64.7,39.5h0.2h20.8h0.2c16.8,0,31.9-5.1,45.3-15.4
				c13.4,10.3,28.5,15.4,45.3,15.4h27.6c16.4,0,31.4-5,44.8-14.9h0.5c13.4,9.9,28.3,14.9,44.8,14.9h27.6c16.5,0,31.4-5,44.8-14.9
				h0.5c13.4,9.9,28.3,14.9,44.8,14.9h19.5h1.5h146.6c9.5,0,18.7-1.7,27.6-5.1c28.4-13.5,42.6-33.5,42.6-60.1v-37
				C1895.7,214.9,1893.9,206.3,1890.2,198z"/>
		</g>
	</g>
	<g>
		<path class="st2" d="M150,461l-14.7,54.6h-9l-10.1-33.1l-10,33.1h-9L82.5,461h11.2l8.5,34.3l10.1-34.3h8l10.1,34.3l8.5-34.3H150z"
			/>
		<path class="st2" d="M310.6,461L296,515.6h-9l-10.1-33.1l-10,33.1h-9L243.1,461h11.2l8.5,34.3l10.1-34.3h8l10.1,34.3l8.5-34.3
			H310.6z"/>
		<path class="st2" d="M471.2,461l-14.7,54.6h-9l-10.1-33.1l-10,33.1h-9L403.7,461h11.2l8.5,34.3l10.1-34.3h8l10.1,34.3L460,461
			H471.2z"/>
		<path class="st2" d="M568.5,506.8h7c0.7,0.1,1,0.4,1,1v7c-0.1,0.7-0.4,1-1,1h-7c-0.7-0.1-1-0.4-1-1v-7
			C567.6,507.1,567.9,506.8,568.5,506.8z"/>
		<path class="st2" d="M715.6,461v54.6h-10.7v-22.9h-18.7v22.9h-10.7V461h10.7v22.2h18.7V461H715.6z"/>
		<path class="st2" d="M850.1,461v9.5h-25.5v12.8h21.7v9.5h-21.7v13.3h25.5v9.5h-36.2V461H850.1z"/>
		<path class="st2" d="M966.1,461c7.3,0,13.1,2.1,17.5,6.3l-6.7,6.6c-2.5-2.4-6.2-3.7-11.1-3.7c-2.7,0-4.8,0.6-6.2,1.9
			c-1.4,1.3-2.2,2.9-2.2,4.9c0,1.5,0.5,2.8,1.6,3.8c1.2,1,2.8,1.7,4.9,2l6.5,1c4.6,0.7,8,2.1,10.3,4.2c2.8,2.6,4.2,6.4,4.2,11.3
			c0,5.1-1.9,9.1-5.6,11.9c-3.7,2.9-8.5,4.3-14.4,4.3c-4.3,0-8-0.5-11.2-1.6c-3.1-1-6-2.9-8.6-5.5l6.8-6.8c3,3,7.4,4.5,13,4.5
			c3.1,0,5.5-0.6,7.2-1.7c1.6-1.1,2.5-2.8,2.5-5c0-1.8-0.6-3.3-1.7-4.5c-0.9-0.8-2.6-1.4-4.8-1.8l-6.5-1c-4.6-0.7-8.1-2.2-10.5-4.5
			c-2.6-2.5-3.9-6-3.9-10.6c0-4.9,1.7-8.8,5.1-11.8C955.8,462.5,960.4,461,966.1,461z"/>
		<path class="st2" d="M1107.8,461l20.1,54.6h-11.3l-3.3-9.6H1094l-3.3,9.6h-11.3l20.1-54.6H1107.8z M1103.7,477.2l-6.8,19.8h13.5
			L1103.7,477.2z"/>
		<path class="st2" d="M1223.6,461h22c5.4,0,9.5,1.4,12.6,4.1s4.5,6.5,4.5,11.2c0,2.7-0.7,5.1-2.1,7c-1.4,2-3,3.4-4.7,4.2
			c5.1,2.3,7.6,6.4,7.6,12.3c0,4.9-1.6,8.8-4.7,11.6c-3.1,2.8-7.2,4.1-12.2,4.1h-23V461z M1244.9,470.5h-10.6v12.7h10.6
			c2.3,0,4-0.6,5.2-1.7c1.2-1.2,1.8-2.7,1.8-4.6c0-2-0.6-3.5-1.9-4.6C1248.8,471.1,1247.1,470.5,1244.9,470.5z M1245.5,492.7h-11.2
			v13.4h11.2c2.3,0,4.1-0.7,5.4-1.9c1.2-1.3,1.8-2.9,1.8-4.9c0-1.9-0.6-3.5-1.8-4.8C1249.6,493.3,1247.9,492.7,1245.5,492.7z"/>
		<path class="st2" d="M1362.5,506.8h7c0.7,0.1,1,0.4,1,1v7c-0.1,0.7-0.4,1-1,1h-7c-0.7-0.1-1-0.4-1-1v-7
			C1361.6,507.1,1361.9,506.8,1362.5,506.8z"/>
		<path class="st2" d="M1480.2,461v45.1h24.9v9.5h-35.6V461H1480.2z"/>
		<path class="st2" d="M1612.3,461v54.6h-10.7V461H1612.3z"/>
		<path class="st2" d="M1752.7,461v54.6h-9.5l-21.8-33.4v33.4h-10.7V461h9.6l21.7,33.4V461H1752.7z"/>
		<path class="st2" d="M1894.3,461l-18.2,21.7l19.5,32.9H1883l-14.1-24.8l-7.2,8.4v16.4H1851V461h10.7v23.8l19.4-23.8H1894.3z"/>
	</g>
</g>
</svg>
