<svg width="2424" height="979" viewBox="0 0 2424 979" fill="none" xmlns="http://www.w3.org/2000/svg">
<path d="M949.568 236.165C973.119 250.105 997.225 258.551 1024.75 252.766C1036.05 249.588 1045.29 244.044 1055 237.542C1060.34 234.907 1060.34 234.907 1065.75 235C1070.27 236.891 1070.27 236.891 1072.99 240.418C1076.22 251.888 1068.36 265.215 1063.32 275.338C1045.1 307.287 1014.18 329.872 979.005 339.802C938.39 350.525 889.113 353.774 850.001 336.11C841.089 330.745 833.958 324.987 828.173 316.266C828.173 314.956 828.173 313.647 828.173 312.297C826.863 312.297 825.553 312.297 824.204 312.297C823.754 313.402 823.303 314.507 822.84 315.646C814.512 330.318 799.465 337.977 783.85 342.73C737.102 354.382 682.365 348.906 639.657 326.188C611.765 308.965 589.101 284.962 580.126 252.766C579.976 248.138 579.941 243.502 580.126 238.875C584.459 236.565 584.459 236.565 590.048 234.907C594.954 236.844 594.954 236.844 600.094 240.116C620.453 252.031 639.801 258.127 663.291 253.65C682.4 248.576 699.194 238.854 716.442 229.438C723.193 225.795 730.027 222.33 736.891 218.908C739.061 217.82 741.23 216.733 743.465 215.613C758.096 208.659 776.877 208.838 792.586 212.52C805.589 217.444 816.739 224.864 824.204 236.891C824.204 238.201 824.204 239.51 824.204 240.86C825.514 240.86 826.823 240.86 828.173 240.86C828.725 238.772 828.725 238.772 829.289 236.643C836.152 222.917 849.833 215.938 863.891 211.094C895.923 202.89 923.303 220.369 949.568 236.165Z" fill="#221E1F"/>
<path d="M749.672 14.2542C752.445 16.3036 755.177 18.4105 757.857 20.5794C759.075 21.5284 760.293 22.4774 761.547 23.4552C775.608 35.8051 785.434 55.7182 787.623 74.1575C788.761 73.5845 789.9 73.0115 791.072 72.4212C812.394 63.1031 838.484 62.2412 860.425 70.1887C863.306 71.4479 866.174 72.7437 868.982 74.1575C869.064 71.9883 869.146 69.8191 869.23 67.5842C871.696 48.4997 884.167 32.4101 898.748 20.5794C922.304 3.58808 947.437 -0.958986 975.937 3.65017C1000.21 10.0821 1019.71 25.4921 1032.6 46.6785C1039.09 58.6163 1041.95 68.4939 1041.62 82.095C1044.81 82.0605 1044.81 82.0605 1048.06 82.0252C1050.84 82.0066 1053.61 81.9886 1056.38 81.971C1057.78 81.9543 1059.19 81.9377 1060.63 81.9206C1064.22 81.9034 1067.8 81.9914 1071.39 82.095C1073.37 84.0794 1073.37 84.0794 1073.62 90.0325C1073.37 95.9856 1073.37 95.9856 1071.39 97.97C1066.37 98.1151 1061.4 98.1535 1056.38 98.094C1054.97 98.0851 1053.56 98.0761 1052.11 98.0669C1048.61 98.0434 1045.12 98.0078 1041.62 97.97C1041.62 99.1262 1041.61 100.282 1041.61 101.474C1040.66 121.542 1031.63 139.353 1017.9 153.905C999.357 170.352 979.322 178.523 954.683 178.337C952.949 178.327 951.215 178.317 949.429 178.307C923.368 177.608 904.123 165.649 886.47 147.207C875.806 134.721 869.5 121.315 867.37 105.039C866.237 98.0355 866.237 98.0355 861.464 93.0556C857.395 90.9991 853.483 89.4159 849.139 88.0481C847.174 87.3933 845.21 86.7384 843.186 86.0637C824.71 84.7845 808.186 84.6317 791.592 94.0012C787.898 97.6946 788.039 103.922 787.127 108.884C782.415 131.134 771.63 149.435 752.982 163.044C729.532 177.632 705.515 183.096 678.358 176.973C654.558 170.399 635.861 156.778 623.044 135.549C615.984 122.556 612.811 112.86 612.998 97.97C609.81 98.0045 609.81 98.0045 606.557 98.0397C603.784 98.0584 601.012 98.0764 598.239 98.094C596.836 98.1106 595.433 98.1273 593.988 98.1444C590.402 98.1615 586.816 98.0736 583.232 97.97C581.248 95.9856 581.248 95.9856 581 90.0325C581.248 84.0794 581.248 84.0794 583.232 82.095C588.254 81.9499 593.22 81.9115 598.239 81.971C599.65 81.9799 601.061 81.9889 602.514 81.9981C606.009 82.0215 609.503 82.0571 612.998 82.095C612.98 80.9848 612.962 79.8747 612.944 78.7309C613.676 58.932 622.898 39.906 636.438 25.5403C668.084 -2.87959 712.924 -8.93868 749.672 14.2542ZM644.748 46.3762C630.575 64.6645 629.167 83.5597 630.857 105.907C634.452 123.906 646.674 137.861 660.925 148.905C676.349 159 692.74 162.956 710.977 160.23C730.281 156.171 745.669 147.359 757.857 131.704C769.816 111.655 773.147 91.2818 768.616 68.3516C762.333 50.4451 748.237 35.9716 732.099 26.4085C699.765 11.3983 668.111 21.187 644.748 46.3762ZM898.748 46.3762C884.575 64.6645 883.167 83.5597 884.857 105.907C888.452 123.906 900.674 137.861 914.925 148.905C930.349 159 946.74 162.956 964.977 160.23C984.281 156.171 999.669 147.359 1011.86 131.704C1023.82 111.655 1027.15 91.2818 1022.62 68.3516C1016.33 50.4451 1002.24 35.9716 986.099 26.4085C953.765 11.3983 922.111 21.187 898.748 46.3762Z" fill="#221E1F"/>
<path d="M953.155 33.7285C967.585 33.9157 978.421 38.4457 989.145 48.0997C1001.56 61.4779 1005.57 73.3981 1005.28 91.5079C1004.87 95.9883 1004.87 95.9883 1002.89 97.9727C998.921 98.0536 994.95 98.0571 990.982 97.9727C987.911 92.7069 986.642 88.3912 985.277 82.3457C982.589 71.3036 978.179 64.4221 968.782 57.7891C961.799 54.1383 954.687 52.5301 946.97 51.1306C943.357 50.3477 943.357 50.3477 941.373 48.3633C941.125 42.4102 941.125 42.4102 941.373 36.457C944.695 33.135 948.592 33.8949 953.155 33.7285Z" fill="#231E1F"/>
<path d="M699.155 33.7285C713.585 33.9157 724.421 38.4457 735.145 48.0997C747.56 61.4779 751.572 73.3981 751.276 91.5079C750.873 95.9883 750.873 95.9883 748.889 97.9727C744.921 98.0536 740.95 98.0571 736.982 97.9727C733.911 92.7069 732.642 88.3912 731.277 82.3457C728.589 71.3036 724.179 64.4221 714.782 57.7891C707.799 54.1383 700.687 52.5301 692.97 51.1306C689.357 50.3477 689.357 50.3477 687.373 48.3633C687.125 42.4102 687.125 42.4102 687.373 36.457C690.695 33.135 694.592 33.8949 699.155 33.7285Z" fill="#231E1F"/>
<path d="M420.546 625.742C423.744 625.742 425.543 624.043 426.043 620.644V584.755C426.043 581.756 424.244 580.056 420.546 579.656H381.87C378.672 579.656 376.873 581.356 376.373 584.755V620.644C376.373 623.643 378.172 625.342 381.87 625.742H420.546Z" fill="#1D1D1D"/>
<path d="M487.706 812.584C484.508 812.584 482.709 814.283 482.209 817.682V853.571C482.209 856.57 484.108 858.27 487.706 858.67H576.052C579.25 858.67 581.049 856.97 581.549 853.571V817.682C581.549 814.683 579.75 812.984 576.052 812.584H487.706Z" fill="#1D1D1D"/>
<path d="M682.688 533.87H644.012C640.813 533.87 638.915 535.569 638.515 538.968V714.014C638.515 724.811 631.719 731.209 618.127 733.008H599.139C598.939 732.809 598.939 732.609 598.639 732.509H577.652C565.959 732.509 559.163 726.211 557.264 713.514V662.73C557.264 659.731 555.465 658.031 551.767 657.632H513.69C508.893 657.632 506.494 659.531 506.494 663.23V714.014C506.494 724.811 499.699 731.209 486.107 733.008H467.118C466.918 732.809 466.918 732.609 466.619 732.509H445.631C433.938 732.509 427.142 726.211 425.243 713.514V662.73C425.243 659.731 423.445 658.031 419.747 657.632H381.67C376.873 657.632 374.474 659.531 374.474 663.23V714.014C374.474 724.811 367.678 731.209 354.086 733.008H334.598H333.099H313.611C301.918 733.008 295.122 726.71 293.223 714.014V677.026C293.223 668.228 291.424 659.731 287.726 651.334C273.235 624.942 251.748 611.846 223.065 611.846H182.79V611.346C183.489 611.346 199.58 602.748 230.861 585.654C248.55 577.356 257.345 571.558 257.345 568.159C257.345 566.659 253.147 559.462 244.652 546.566C239.855 537.368 236.158 532.67 233.559 532.67H230.761C225.964 534.669 185.688 556.263 109.834 597.35C95.8422 603.748 88.8464 608.647 88.8464 612.246V652.833C88.8464 655.832 90.6453 657.532 94.3431 657.932H222.566C234.259 657.932 241.055 664.23 242.953 676.926V713.914C242.953 724.711 236.158 731.109 222.566 732.909H0V779.094H222.566C239.356 779.094 254.447 773.996 267.838 763.699C281.23 773.996 296.321 779.094 313.111 779.094H332.599H334.098H353.587C370.277 779.094 385.767 773.796 399.959 763.199C413.351 773.496 428.442 778.595 445.231 778.595H464.22C464.42 778.794 464.42 779.094 464.72 779.094H485.707C502.397 779.094 517.888 773.796 532.079 763.199C545.471 773.496 560.562 778.595 577.352 778.595H596.34C596.54 778.794 596.54 779.094 596.84 779.094H617.827C627.222 779.094 636.516 777.395 645.411 773.996C673.794 760.5 687.985 740.506 687.985 713.914V538.968C688.185 536.069 686.386 534.369 682.688 533.87Z" fill="#1D1D1D"/>
<path d="M748 453.67C800.14 453.67 852.28 453.67 906 453.67C904.409 464.863 902.638 470.849 897.073 479.985C896.026 481.761 896.026 481.761 894.957 483.574C892.741 487.322 890.495 491.052 888.249 494.781C886.746 497.312 885.246 499.845 883.748 502.379C873.457 519.735 873.457 519.735 868.381 527.387C868.339 532.307 868.514 536.956 868.909 541.843C869.01 543.273 869.11 544.703 869.214 546.177C869.537 550.627 869.893 555.073 870.262 559.519C870.369 560.83 870.477 562.14 870.588 563.49C871.354 572.651 872.219 581.802 873.095 590.953C873.377 593.94 873.658 596.928 873.939 599.916C874.538 606.273 875.139 612.63 875.743 618.986C876.699 629.043 877.644 639.1 878.587 649.158C881.267 677.73 883.959 706.301 886.667 734.871C888.168 750.707 889.659 766.545 891.139 782.383C892.074 792.38 893.021 802.375 893.977 812.37C894.567 818.571 895.146 824.773 895.721 830.976C895.99 833.85 896.264 836.723 896.543 839.596C896.922 843.518 897.285 847.44 897.644 851.364C897.851 853.557 898.059 855.751 898.272 858.011C898.523 865.163 898.32 870.886 894.089 876.78C892.492 878.402 892.492 878.402 890.863 880.057C889.657 881.299 888.451 882.541 887.208 883.82C885.895 885.13 884.583 886.44 883.23 887.789C881.882 889.156 880.534 890.522 879.144 891.93C876.29 894.812 873.426 897.684 870.554 900.547C866.166 904.929 861.826 909.355 857.488 913.786C854.708 916.582 851.924 919.376 849.138 922.166C847.844 923.491 846.551 924.816 845.218 926.182C839.6 931.72 835.851 935.238 828.261 937.67C823.238 937.554 823.238 937.554 818.55 934.069C817.071 932.412 815.592 930.755 814.068 929.048C808.703 923.141 803.384 917.631 797.353 912.405C788.768 904.964 780.638 897.119 772.57 889.118C771.128 887.724 769.687 886.331 768.202 884.895C766.149 882.855 766.149 882.855 764.054 880.775C762.82 879.562 761.586 878.35 760.315 877.1C754.116 868.979 755.526 859.947 756.381 850.194C756.496 848.84 756.611 847.487 756.73 846.092C757.117 841.567 757.524 837.043 757.93 832.519C758.212 829.272 758.493 826.024 758.772 822.775C759.376 815.786 759.989 808.798 760.608 801.81C761.585 790.764 762.543 779.716 763.497 768.668C765.526 745.22 767.578 721.775 769.631 698.329C771.848 673.012 774.06 647.694 776.248 622.375C777.198 611.388 778.161 600.403 779.133 589.418C779.735 582.591 780.326 575.763 780.914 568.935C781.19 565.765 781.47 562.595 781.754 559.425C782.141 555.105 782.513 550.783 782.881 546.46C783.093 544.04 783.305 541.62 783.524 539.127C783.864 529.501 781.213 523.801 776.655 515.433C775.6 513.487 774.546 511.542 773.459 509.537C772.351 507.513 771.243 505.49 770.101 503.405C769.022 501.418 767.943 499.431 766.832 497.384C765.235 494.447 765.235 494.447 763.606 491.451C762.562 489.53 761.518 487.609 760.443 485.63C758.511 482.134 756.539 478.66 754.514 475.218C753.654 473.748 752.794 472.277 751.909 470.763C751.151 469.503 750.392 468.244 749.611 466.947C748 463.121 748 463.121 748 453.67Z" fill="url(#paint0_linear_5450_58666)"/>
<path d="M748 453.67C800.14 453.67 852.28 453.67 906 453.67C904.409 464.863 902.638 470.849 897.073 479.985C896.026 481.761 896.026 481.761 894.957 483.574C892.741 487.322 890.495 491.052 888.249 494.781C886.746 497.312 885.246 499.845 883.748 502.379C873.457 519.735 873.457 519.735 868.381 527.387C868.339 532.307 868.514 536.956 868.909 541.843C869.01 543.273 869.11 544.703 869.214 546.177C869.537 550.627 869.893 555.073 870.262 559.519C870.369 560.83 870.477 562.14 870.588 563.49C871.354 572.651 872.219 581.802 873.095 590.953C873.377 593.94 873.658 596.928 873.939 599.916C874.538 606.273 875.139 612.63 875.743 618.986C876.699 629.043 877.644 639.1 878.587 649.158C881.267 677.73 883.959 706.301 886.667 734.871C888.168 750.707 889.659 766.545 891.139 782.383C892.074 792.38 893.021 802.375 893.977 812.37C894.567 818.571 895.146 824.773 895.721 830.976C895.99 833.85 896.264 836.723 896.543 839.596C896.922 843.518 897.285 847.44 897.644 851.364C897.851 853.557 898.059 855.751 898.272 858.011C898.523 865.163 898.32 870.886 894.089 876.78C892.492 878.402 892.492 878.402 890.863 880.057C889.657 881.299 888.451 882.541 887.208 883.82C885.895 885.13 884.583 886.44 883.23 887.789C881.882 889.156 880.534 890.522 879.144 891.93C876.29 894.812 873.426 897.684 870.554 900.547C866.166 904.929 861.826 909.355 857.488 913.786C854.708 916.582 851.924 919.376 849.138 922.166C847.844 923.491 846.551 924.816 845.218 926.182C839.6 931.72 835.851 935.238 828.261 937.67C823.238 937.554 823.238 937.554 818.55 934.069C817.071 932.412 815.592 930.755 814.068 929.048C808.703 923.141 803.384 917.631 797.353 912.405C788.768 904.964 780.638 897.119 772.57 889.118C771.128 887.724 769.687 886.331 768.202 884.895C766.149 882.855 766.149 882.855 764.054 880.775C762.82 879.562 761.586 878.35 760.315 877.1C754.116 868.979 755.526 859.947 756.381 850.194C756.496 848.84 756.611 847.487 756.73 846.092C757.117 841.567 757.524 837.043 757.93 832.519C758.212 829.272 758.493 826.024 758.772 822.775C759.376 815.786 759.989 808.798 760.608 801.81C761.585 790.764 762.543 779.716 763.497 768.668C765.526 745.22 767.578 721.775 769.631 698.329C771.848 673.012 774.06 647.694 776.248 622.375C777.198 611.388 778.161 600.403 779.133 589.418C779.735 582.591 780.326 575.763 780.914 568.935C781.19 565.765 781.47 562.595 781.754 559.425C782.141 555.105 782.513 550.783 782.881 546.46C783.093 544.04 783.305 541.62 783.524 539.127C783.864 529.501 781.213 523.801 776.655 515.433C775.6 513.487 774.546 511.542 773.459 509.537C772.351 507.513 771.243 505.49 770.101 503.405C769.022 501.418 767.943 499.431 766.832 497.384C765.235 494.447 765.235 494.447 763.606 491.451C762.562 489.53 761.518 487.609 760.443 485.63C758.511 482.134 756.539 478.66 754.514 475.218C753.654 473.748 752.794 472.277 751.909 470.763C751.151 469.503 750.392 468.244 749.611 466.947C748 463.121 748 463.121 748 453.67Z" fill="black" fill-opacity="0.2"/>
<path d="M748 453.67C800.14 453.67 852.28 453.67 906 453.67C904.409 464.863 902.638 470.849 897.073 479.985C896.026 481.761 896.026 481.761 894.957 483.574C892.741 487.322 890.495 491.052 888.249 494.781C886.746 497.312 885.246 499.845 883.748 502.379C873.457 519.735 873.457 519.735 868.381 527.387C868.339 532.307 868.514 536.956 868.909 541.843C869.01 543.273 869.11 544.703 869.214 546.177C869.537 550.627 869.893 555.073 870.262 559.519C870.369 560.83 870.477 562.14 870.588 563.49C871.354 572.651 872.219 581.802 873.095 590.953C873.377 593.94 873.658 596.928 873.939 599.916C874.538 606.273 875.139 612.63 875.743 618.986C876.699 629.043 877.644 639.1 878.587 649.158C881.267 677.73 883.959 706.301 886.667 734.871C888.168 750.707 889.659 766.545 891.139 782.383C892.074 792.38 893.021 802.375 893.977 812.37C894.567 818.571 895.146 824.773 895.721 830.976C895.99 833.85 896.264 836.723 896.543 839.596C896.922 843.518 897.285 847.44 897.644 851.364C897.851 853.557 898.059 855.751 898.272 858.011C898.523 865.163 898.32 870.886 894.089 876.78C892.492 878.402 892.492 878.402 890.863 880.057C889.657 881.299 888.451 882.541 887.208 883.82C885.895 885.13 884.583 886.44 883.23 887.789C881.882 889.156 880.534 890.522 879.144 891.93C876.29 894.812 873.426 897.684 870.554 900.547C866.166 904.929 861.826 909.355 857.488 913.786C854.708 916.582 851.924 919.376 849.138 922.166C847.844 923.491 846.551 924.816 845.218 926.182C839.6 931.72 835.851 935.238 828.261 937.67C823.238 937.554 823.238 937.554 818.55 934.069C817.071 932.412 815.592 930.755 814.068 929.048C808.703 923.141 803.384 917.631 797.353 912.405C788.768 904.964 780.638 897.119 772.57 889.118C771.128 887.724 769.687 886.331 768.202 884.895C766.149 882.855 766.149 882.855 764.054 880.775C762.82 879.562 761.586 878.35 760.315 877.1C754.116 868.979 755.526 859.947 756.381 850.194C756.496 848.84 756.611 847.487 756.73 846.092C757.117 841.567 757.524 837.043 757.93 832.519C758.212 829.272 758.493 826.024 758.772 822.775C759.376 815.786 759.989 808.798 760.608 801.81C761.585 790.764 762.543 779.716 763.497 768.668C765.526 745.22 767.578 721.775 769.631 698.329C771.848 673.012 774.06 647.694 776.248 622.375C777.198 611.388 778.161 600.403 779.133 589.418C779.735 582.591 780.326 575.763 780.914 568.935C781.19 565.765 781.47 562.595 781.754 559.425C782.141 555.105 782.513 550.783 782.881 546.46C783.093 544.04 783.305 541.62 783.524 539.127C783.864 529.501 781.213 523.801 776.655 515.433C775.6 513.487 774.546 511.542 773.459 509.537C772.351 507.513 771.243 505.49 770.101 503.405C769.022 501.418 767.943 499.431 766.832 497.384C765.235 494.447 765.235 494.447 763.606 491.451C762.562 489.53 761.518 487.609 760.443 485.63C758.511 482.134 756.539 478.66 754.514 475.218C753.654 473.748 752.794 472.277 751.909 470.763C751.151 469.503 750.392 468.244 749.611 466.947C748 463.121 748 463.121 748 453.67ZM798.786 533.057C795.372 566.04 792.288 599.023 789.565 632.07C789.41 633.949 789.255 635.828 789.095 637.764C788.131 649.484 787.174 661.204 786.218 672.924C784.793 690.416 783.361 707.906 781.923 725.397C781.768 727.293 781.612 729.189 781.452 731.142C778.784 763.619 775.9 796.075 772.858 828.519C772.704 830.18 772.55 831.842 772.391 833.554C772.106 836.63 771.817 839.705 771.523 842.779C769.338 857.421 769.338 857.421 774.018 870.508C775.601 872.052 777.184 873.595 778.815 875.185C780.547 876.897 782.278 878.609 784.061 880.372C785.913 882.146 787.764 883.919 789.616 885.692C791.426 887.47 793.234 889.251 795.039 891.034C802.088 897.936 809.116 904.785 816.758 911.025C821.357 914.872 821.357 914.872 825.119 920.542C836.848 915.706 845.955 905.205 855.012 896.541C857.402 894.287 859.827 892.069 862.286 889.89C865.871 886.707 869.321 883.415 872.767 880.081C873.864 879.152 874.961 878.223 876.092 877.266C881.655 871.622 883.322 867.325 883.852 859.359C883.649 851.984 882.905 844.67 882.13 837.337C881.487 831.123 880.945 824.905 880.414 818.68C879.188 804.427 877.873 790.183 876.543 775.939C875.87 768.721 875.205 761.502 874.538 754.283C873.418 742.17 872.293 730.058 871.165 717.947C869.87 704.039 868.581 690.13 867.296 676.221C865.916 661.275 864.53 646.329 863.143 631.384C862.75 627.138 862.357 622.891 861.964 618.645C859.321 590.087 856.616 561.549 853.333 533.057C835.333 533.057 817.332 533.057 798.786 533.057Z" fill="#18174F"/>
<path d="M766.81 465.012C805.915 465.012 845.02 465.012 885.31 465.012C883.469 474.259 880.392 480.35 875.552 488.166C874.848 489.333 874.143 490.501 873.418 491.703C871.941 494.131 870.425 496.535 868.875 498.916C866.373 502.84 866.373 502.84 864.434 507.431C861.81 512.649 859.642 516.002 855.214 519.827C846.856 522.207 838.889 522.595 830.277 522.46C826.3 522.426 822.374 522.613 818.404 522.817C810.768 522.965 804.203 522.35 796.905 519.827C789.929 512.492 786.013 504.427 781.857 495.254C780.309 492.547 778.729 489.856 777.096 487.199C775.874 485.062 774.652 482.925 773.393 480.724C772.743 479.604 772.093 478.485 771.424 477.331C766.81 469.244 766.81 469.244 766.81 465.012Z" fill="url(#paint1_linear_5450_58666)"/>
<path d="M766.81 465.012C805.915 465.012 845.02 465.012 885.31 465.012C883.469 474.259 880.392 480.35 875.552 488.166C874.848 489.333 874.143 490.501 873.418 491.703C871.941 494.131 870.425 496.535 868.875 498.916C866.373 502.84 866.373 502.84 864.434 507.431C861.81 512.649 859.642 516.002 855.214 519.827C846.856 522.207 838.889 522.595 830.277 522.46C826.3 522.426 822.374 522.613 818.404 522.817C810.768 522.965 804.203 522.35 796.905 519.827C789.929 512.492 786.013 504.427 781.857 495.254C780.309 492.547 778.729 489.856 777.096 487.199C775.874 485.062 774.652 482.925 773.393 480.724C772.743 479.604 772.093 478.485 771.424 477.331C766.81 469.244 766.81 469.244 766.81 465.012Z" fill="black" fill-opacity="0.2"/>
<path d="M840.167 533.057C844.512 533.057 848.857 533.057 853.333 533.057C857.305 570.825 860.988 608.614 864.486 646.429C864.883 650.716 865.28 655.003 865.678 659.29C867.071 674.307 868.462 689.323 869.849 704.34C871.135 718.261 872.429 732.182 873.725 746.103C874.847 758.164 875.965 770.226 877.08 782.287C877.741 789.447 878.404 796.606 879.073 803.765C879.697 810.458 880.316 817.151 880.93 823.845C881.262 827.452 881.601 831.059 881.939 834.665C884.586 863.674 884.586 863.674 881.358 869.399C880.389 870.343 879.42 871.288 878.421 872.261C877.329 873.357 876.237 874.453 875.112 875.583C873.322 877.279 873.322 877.279 871.496 879.01C870.285 880.208 869.075 881.405 867.827 882.64C863.966 886.446 860.062 890.203 856.155 893.961C853.524 896.539 850.896 899.119 848.271 901.703C841.841 908.018 835.372 914.29 828.881 920.542C827.019 919.918 825.157 919.294 823.238 918.651C829.462 911.021 835.852 904.018 843.032 897.284C844.523 895.868 846.014 894.452 847.551 892.994C850.638 890.079 853.754 887.195 856.897 884.34C858.373 882.92 859.85 881.499 861.371 880.036C863.391 878.158 863.391 878.158 865.452 876.242C873.767 862.488 867.151 839.232 865.633 823.656C865.346 820.648 865.06 817.641 864.774 814.633C864.022 806.725 863.26 798.819 862.497 790.912C861.288 778.389 860.095 765.864 858.899 753.339C858.607 750.28 858.315 747.221 858.022 744.162C856.185 724.963 854.41 705.761 852.78 686.543C851.04 666.048 849.144 645.567 847.254 625.085C846.625 618.265 845.998 611.445 845.372 604.625C844.967 600.227 844.562 595.829 844.156 591.43C843.972 589.422 843.788 587.414 843.598 585.344C842.798 576.694 841.964 568.054 840.987 559.423C840.318 553.336 839.963 547.554 840.049 541.444C840.066 539.843 840.083 538.243 840.1 536.593C840.122 535.426 840.144 534.259 840.167 533.057Z" fill="#E2F1FC"/>
<path d="M766.81 465.012C805.915 465.012 845.02 465.012 885.31 465.012C883.47 474.256 880.397 480.356 875.552 488.166C874.786 489.412 874.021 490.657 873.232 491.94C871.699 494.423 870.161 496.903 868.616 499.379C866.776 502.367 865.014 505.404 863.267 508.449C861.9 510.748 861.9 510.748 860.505 513.093C859.741 514.416 858.977 515.739 858.19 517.102C855.214 519.827 855.214 519.827 849.241 520.248C847.488 520.109 845.735 519.97 843.929 519.827C846.117 515.925 848.313 512.027 850.512 508.131C852.345 504.875 852.345 504.875 854.215 501.553C860.63 490.52 867.36 479.675 874.024 468.792C838.643 468.792 803.262 468.792 766.81 468.792C766.81 467.545 766.81 466.297 766.81 465.012Z" fill="url(#paint2_linear_5450_58666)"/>
<path d="M1118.12 812.414C1114.92 812.414 1113.13 814.12 1112.63 817.531V853.553C1112.63 856.563 1114.42 858.269 1118.12 858.67H1156.8C1160 858.67 1161.8 856.964 1162.3 853.553V817.531C1162.3 814.521 1160.5 812.815 1156.8 812.414H1118.12Z" fill="#2F27CE"/>
<path d="M1215.17 657.09C1211.97 657.09 1210.18 658.796 1209.68 662.207V713.48C1209.68 724.317 1202.88 730.738 1189.19 732.544H966V778.901H1189.19C1198.68 778.901 1207.88 777.195 1216.77 773.784C1245.16 760.238 1259.35 740.17 1259.35 713.48V662.207C1259.35 659.197 1257.55 657.491 1253.85 657.09H1215.17Z" fill="#2F27CE"/>
<path d="M1944.3 650.668C1929.81 624.179 1908.32 611.034 1879.64 611.034H1856.75H1816.47H1800.68C1772.09 611.034 1750.5 624.279 1736.01 650.668C1732.31 658.996 1730.51 667.625 1730.51 676.455V691.205C1731.01 694.616 1732.81 696.322 1736.01 696.322H1774.69C1778.39 695.82 1780.19 694.115 1780.19 691.205V676.455C1782.19 663.712 1788.98 657.391 1800.58 657.391H1816.37H1879.64C1891.33 657.391 1898.13 663.712 1900.03 676.455V713.58C1900.03 724.417 1893.23 730.838 1879.64 732.645H1733.11H1731.61H1712.12C1701.73 732.645 1695.03 727.327 1692.23 716.691V667.525C1692.23 664.515 1690.43 662.809 1686.73 662.408H1647.45C1644.26 662.408 1642.46 664.113 1641.96 667.525V716.691C1639.16 727.327 1632.56 732.645 1622.07 732.645H1594.48C1583.99 732.645 1577.39 727.327 1574.59 716.691V667.525C1574.59 664.515 1572.69 662.809 1569.09 662.408H1529.91C1526.72 662.408 1524.92 664.113 1524.42 667.525V716.691C1521.62 727.327 1514.92 732.645 1504.53 732.645H1476.94C1465.25 732.645 1458.45 726.323 1456.55 713.58V666.923C1456.55 664.314 1454.85 662.709 1451.55 662.307H1411.77C1408.98 662.307 1407.28 663.812 1406.78 666.923V713.58C1406.78 724.417 1399.98 730.838 1386.39 732.645H1386.19H1365.4H1365.2C1353.5 732.645 1346.71 726.323 1344.81 713.58V537.787C1344.81 534.777 1343.01 533.071 1339.31 532.67H1300.63C1297.43 532.67 1295.63 534.376 1295.13 537.787V713.48C1295.13 722.31 1296.93 730.939 1300.63 739.267C1315.12 765.756 1336.61 778.901 1365.3 778.901H1365.5H1386.29H1386.49C1403.28 778.901 1418.37 773.783 1431.76 763.448C1445.16 773.783 1460.25 778.901 1477.04 778.901H1504.63C1521.02 778.901 1536.01 773.884 1549.4 763.95H1549.9C1563.3 773.884 1578.19 778.901 1594.68 778.901H1622.27C1638.76 778.901 1653.65 773.884 1667.04 763.95H1667.54C1680.94 773.884 1695.83 778.901 1712.32 778.901H1731.81H1733.31H1879.84C1889.33 778.901 1898.53 777.195 1907.42 773.783C1935.81 760.238 1950 740.17 1950 713.48V676.355C1949.8 667.625 1948 658.996 1944.3 650.668Z" fill="#2F27CE"/>
<path d="M2292.46 472.609L2335.57 590.715C2352.88 638.177 2328.17 690.536 2281.05 707.722L2175.82 746.092C2163.31 750.688 2156.81 764.577 2161.41 777.067L2174.12 811.74C2176.72 818.834 2173.02 826.628 2166.01 829.226L2128.5 842.915C2121.4 845.513 2113.6 841.816 2111 834.821L2098.29 800.149C2080.99 752.786 2105.39 700.428 2152.81 683.142L2258.04 644.772C2270.55 640.176 2277.05 626.287 2272.45 613.797L2229.34 495.69C2224.73 483.2 2210.83 476.705 2198.33 481.302L2093.09 519.671C2080.59 524.268 2074.08 538.157 2078.69 550.647L2114.3 648.169C2116.8 655.164 2113.3 662.858 2106.29 665.356L2068.38 679.145C2061.38 681.643 2053.68 678.146 2051.18 671.151L2015.56 573.628C1998.26 526.266 2022.67 473.907 2070.08 456.621L2175.32 418.252C2222.43 400.965 2275.15 425.146 2292.46 472.609Z" fill="#2F27CE"/>
<path d="M2329.77 731.002L2367.38 717.313C2374.38 714.715 2382.19 718.412 2384.79 725.407L2418.5 817.733C2435.7 864.896 2411.2 917.554 2363.98 934.741L2258.75 973.11C2211.33 990.397 2158.91 966.016 2141.61 918.653L2134.4 898.769C2131.9 891.875 2135.4 884.181 2142.41 881.683C2142.41 881.683 2171.22 871.191 2180.92 867.694C2190.62 864.197 2194.52 867.394 2197.22 874.688C2199.93 881.983 2204.83 895.572 2204.83 895.572C2209.43 908.162 2223.23 914.557 2235.84 909.96L2341.07 871.591C2353.58 866.994 2360.08 853.105 2355.48 840.615L2321.77 748.289C2319.06 741.394 2322.77 733.6 2329.77 731.002Z" fill="#1D1D1D"/>
<defs>
<linearGradient id="paint0_linear_5450_58666" x1="725.429" y1="375.884" x2="1055.93" y2="485.461" gradientUnits="userSpaceOnUse">
<stop stop-color="#ACC6FF"/>
<stop offset="1" stop-color="#2F27CE"/>
</linearGradient>
<linearGradient id="paint1_linear_5450_58666" x1="749.881" y1="455.718" x2="801.482" y2="563.115" gradientUnits="userSpaceOnUse">
<stop stop-color="#ACC6FF"/>
<stop offset="1" stop-color="#2F27CE"/>
</linearGradient>
<linearGradient id="paint2_linear_5450_58666" x1="826.06" y1="520.248" x2="826.06" y2="468.401" gradientUnits="userSpaceOnUse">
<stop stop-color="#6982B0"/>
<stop offset="1" stop-color="white"/>
</linearGradient>
</defs>
</svg>
