<svg width="40" height="40" viewBox="0 0 40 40" fill="none" xmlns="http://www.w3.org/2000/svg">
<g clip-path="url(#clip0_3262_42273)">
<mask id="mask0_3262_42273" style="mask-type:luminance" maskUnits="userSpaceOnUse" x="0" y="0" width="40" height="40">
<path d="M40 20C40 8.9543 31.0457 0 20 0C8.9543 0 0 8.9543 0 20C0 31.0457 8.9543 40 20 40C31.0457 40 40 31.0457 40 20Z" fill="white"/>
</mask>
<g mask="url(#mask0_3262_42273)">
<path d="M40 0H0V40H40V0Z" fill="#3F10FA"/>
<path d="M36.1808 17.1333C29.6883 8.19713 17.1809 6.21615 8.24479 12.7087C-0.691362 19.2011 -2.67234 31.7085 3.82016 40.6447C10.3127 49.5809 22.82 51.5618 31.7562 45.0693C40.6924 38.5768 42.6733 26.0694 36.1808 17.1333Z" fill="#ACC7D6"/>
<path d="M9.93555 25.1655C9.85846 26.2679 10.3684 27.366 11.3532 28.2181C12.3381 29.0703 13.7171 29.6068 15.1869 29.7096C16.6568 29.8124 18.097 29.473 19.1908 28.7662C20.2847 28.0594 20.9425 27.043 21.0196 25.9406" fill="black"/>
<path d="M8.58315 20.6155C8.62595 20.0034 8.28847 19.4811 7.82935 19.449C7.37023 19.4169 6.96335 19.8871 6.92054 20.4993C6.87773 21.1114 7.21522 21.6337 7.67434 21.6658C8.13345 21.6979 8.54034 21.2277 8.58315 20.6155Z" fill="black"/>
<path d="M24.1007 21.7007C24.1435 21.0886 23.806 20.5663 23.3469 20.5342C22.8878 20.5021 22.4809 20.9723 22.4381 21.5845C22.3953 22.1966 22.7328 22.7189 23.1919 22.751C23.651 22.7831 24.0579 22.3129 24.1007 21.7007Z" fill="black"/>
</g>
</g>
<defs>
<clipPath id="clip0_3262_42273">
<rect width="40" height="40" fill="white"/>
</clipPath>
</defs>
</svg>
