<svg width="24" height="24" viewBox="0 0 24 24" fill="none" xmlns="http://www.w3.org/2000/svg">
<path d="M9.34655 15.0063L9.34046 15.0124L9.33458 15.0187C9.30433 15.0511 9.24547 15.0799 9.17011 15.0799C9.10556 15.0799 9.04495 15.0576 8.99366 15.0063C8.89892 14.9116 8.89892 14.7482 8.99366 14.6534L14.6537 8.99342C14.7484 8.89868 14.9118 8.89868 15.0066 8.99342C15.1013 9.08815 15.1013 9.25157 15.0066 9.34631L9.34655 15.0063Z" fill="#2F27CE" stroke="#2F27CE"/>
<path d="M14.8301 15.0799C14.7656 15.0799 14.705 15.0576 14.6537 15.0063L8.99366 9.34631C8.89892 9.25157 8.89892 9.08815 8.99366 8.99342C9.0884 8.89868 9.25182 8.89868 9.34655 8.99342L15.0066 14.6534C15.1013 14.7482 15.1013 14.9116 15.0066 15.0063C14.9553 15.0576 14.8947 15.0799 14.8301 15.0799Z" fill="#2F27CE" stroke="#2F27CE"/>
<path d="M15 22.25H9C6.3424 22.25 4.56492 21.6803 3.4423 20.5577C2.31968 19.4351 1.75 17.6576 1.75 15V9C1.75 6.3424 2.31968 4.56492 3.4423 3.4423C4.56492 2.31968 6.3424 1.75 9 1.75H15C17.6576 1.75 19.4351 2.31968 20.5577 3.4423C21.6803 4.56492 22.25 6.3424 22.25 9V15C22.25 17.6576 21.6803 19.4351 20.5577 20.5577C19.4351 21.6803 17.6576 22.25 15 22.25ZM9 2.25C6.65972 2.25 4.92432 2.66107 3.7927 3.7927C2.66107 4.92432 2.25 6.65972 2.25 9V15C2.25 17.3403 2.66107 19.0757 3.7927 20.2073C4.92432 21.3389 6.65972 21.75 9 21.75H15C17.3403 21.75 19.0757 21.3389 20.2073 20.2073C21.3389 19.0757 21.75 17.3403 21.75 15V9C21.75 6.65972 21.3389 4.92432 20.2073 3.7927C19.0757 2.66107 17.3403 2.25 15 2.25H9Z" fill="#2F27CE" stroke="#2F27CE"/>
</svg>
