<svg width="24" height="24" viewBox="0 0 24 24" fill="none" xmlns="http://www.w3.org/2000/svg">
<path d="M12.2336 4.64633L11.88 4.29278L11.5265 4.64633L9.49646 6.67633C9.40172 6.77107 9.2383 6.77107 9.14356 6.67633C9.04883 6.58159 9.04883 6.41817 9.14356 6.32344L11.7036 3.76344C11.7983 3.6687 11.9617 3.6687 12.0565 3.76344L14.6165 6.32344C14.7112 6.41817 14.7112 6.58159 14.6165 6.67633C14.5652 6.72762 14.5046 6.74988 14.44 6.74988C14.3755 6.74988 14.3149 6.72762 14.2636 6.67633L12.2336 4.64633Z" fill="#2F27CE" stroke="#2F27CE"/>
<path d="M11.8799 14.43C11.746 14.43 11.6299 14.3139 11.6299 14.18V4.01001C11.6299 3.87615 11.746 3.76001 11.8799 3.76001C12.0137 3.76001 12.1299 3.87615 12.1299 4.01001V14.18C12.1299 14.3195 12.0181 14.43 11.8799 14.43Z" fill="#2F27CE" stroke="#2F27CE"/>
<path d="M12 20.25C9.54459 20.25 7.48847 19.3939 6.0473 17.9527C4.60614 16.5115 3.75 14.4554 3.75 12C3.75 11.8661 3.86614 11.75 4 11.75C4.13386 11.75 4.25 11.8661 4.25 12C4.25 14.2544 5.03873 16.1983 6.4202 17.5798C7.80167 18.9613 9.74561 19.75 12 19.75C14.2544 19.75 16.1983 18.9613 17.5798 17.5798C18.9613 16.1983 19.75 14.2544 19.75 12C19.75 11.8661 19.8661 11.75 20 11.75C20.1339 11.75 20.25 11.8661 20.25 12C20.25 14.4554 19.3939 16.5115 17.9527 17.9527C16.5115 19.3939 14.4554 20.25 12 20.25Z" fill="#2F27CE" stroke="#2F27CE"/>
</svg>
