<svg width="24" height="25" viewBox="0 0 24 25" fill="none" xmlns="http://www.w3.org/2000/svg">
<path d="M16.75 8.61816H7.25C6.84 8.61816 6.5 8.27816 6.5 7.86816V5.86816C6.5 3.30816 7.69 2.11816 10.25 2.11816H13.75C16.31 2.11816 17.5 3.30816 17.5 5.86816V7.86816C17.5 8.27816 17.16 8.61816 16.75 8.61816ZM8 7.11816H16V5.86816C16 4.16816 15.45 3.61816 13.75 3.61816H10.25C8.55 3.61816 8 4.16816 8 5.86816V7.11816Z" fill="#2F27CE"/>
<path d="M13 23.6182H11C8.58 23.6182 7.25 22.2882 7.25 19.8682V15.8682C7.25 15.4582 7.59 15.1182 8 15.1182H16C16.41 15.1182 16.75 15.4582 16.75 15.8682V19.8682C16.75 22.2882 15.42 23.6182 13 23.6182ZM8.75 16.6182V19.8682C8.75 21.4482 9.42 22.1182 11 22.1182H13C14.58 22.1182 15.25 21.4482 15.25 19.8682V16.6182H8.75Z" fill="#2F27CE"/>
<path d="M18 19.6182H16C15.59 19.6182 15.25 19.2782 15.25 18.8682V16.6182H8.75V18.8682C8.75 19.2782 8.41 19.6182 8 19.6182H6C3.58 19.6182 2.25 18.2882 2.25 15.8682V10.8682C2.25 8.44816 3.58 7.11816 6 7.11816H18C20.42 7.11816 21.75 8.44816 21.75 10.8682V15.8682C21.75 18.2882 20.42 19.6182 18 19.6182ZM16.75 18.1182H18C19.58 18.1182 20.25 17.4482 20.25 15.8682V10.8682C20.25 9.28816 19.58 8.61816 18 8.61816H6C4.42 8.61816 3.75 9.28816 3.75 10.8682V15.8682C3.75 17.4482 4.42 18.1182 6 18.1182H7.25V15.8682C7.25 15.4582 7.59 15.1182 8 15.1182H16C16.41 15.1182 16.75 15.4582 16.75 15.8682V18.1182Z" fill="#2F27CE"/>
<path d="M17 16.6182H7C6.59 16.6182 6.25 16.2782 6.25 15.8682C6.25 15.4582 6.59 15.1182 7 15.1182H17C17.41 15.1182 17.75 15.4582 17.75 15.8682C17.75 16.2782 17.41 16.6182 17 16.6182Z" fill="#2F27CE"/>
<path d="M10 12.6182H7C6.59 12.6182 6.25 12.2782 6.25 11.8682C6.25 11.4582 6.59 11.1182 7 11.1182H10C10.41 11.1182 10.75 11.4582 10.75 11.8682C10.75 12.2782 10.41 12.6182 10 12.6182Z" fill="#2F27CE"/>
</svg>
