<svg width="16" height="16" viewBox="0 0 16 16" fill="none" xmlns="http://www.w3.org/2000/svg">
<path d="M5.45844 12.7197C5.74537 12.7385 6.03117 12.8751 6.25115 13.1117C6.04432 12.8926 5.77094 12.7482 5.45985 12.7274L5.45155 12.7269L5.44324 12.7266C5.25348 12.7203 5.07169 12.7609 4.90647 12.8378L4.8993 12.8314C5.05986 12.7561 5.225 12.7197 5.38659 12.7197H5.38674H5.3869H5.38705H5.38721H5.38737H5.38753H5.38768H5.38784H5.388H5.38816H5.38831H5.38847H5.38863H5.38879H5.38895H5.3891H5.38926H5.38942H5.38958H5.38974H5.3899H5.39006H5.39022H5.39038H5.39054H5.3907H5.39086H5.39102H5.39118H5.39134H5.3915H5.39166H5.39182H5.39198H5.39214H5.3923H5.39247H5.39263H5.39279H5.39295H5.39311H5.39328H5.39344H5.3936H5.39376H5.39392H5.39409H5.39425H5.39441H5.39458H5.39474H5.3949H5.39507H5.39523H5.39539H5.39556H5.39572H5.39588H5.39605H5.39621H5.39638H5.39654H5.39671H5.39687H5.39704H5.3972H5.39737H5.39753H5.3977H5.39786H5.39803H5.39819H5.39836H5.39853H5.39869H5.39886H5.39902H5.39919H5.39936H5.39952H5.39969H5.39986H5.40002H5.40019H5.40036H5.40052H5.40069H5.40086H5.40103H5.40119H5.40136H5.40153H5.4017H5.40186H5.40203H5.4022H5.40237H5.40254H5.40271H5.40287H5.40304H5.40321H5.40338H5.40355H5.40372H5.40389H5.40406H5.40423H5.40439H5.40456H5.40473H5.4049H5.40507H5.40524H5.40541H5.40558H5.40575H5.40592H5.40609H5.40626H5.40643H5.4066H5.40677H5.40694H5.40711H5.40729H5.40746H5.40763H5.4078H5.40797H5.40814H5.40831H5.40848H5.40865H5.40883H5.409H5.40917H5.40934H5.40951H5.40968H5.40985H5.41003H5.4102H5.41037H5.41054H5.41071H5.41089H5.41106H5.41123H5.4114H5.41158H5.41175H5.41192H5.41209H5.41227H5.41244H5.41261H5.41279H5.41296H5.41313H5.4133H5.41348H5.41365H5.41382H5.414H5.41417H5.41434H5.41452H5.41469H5.41486H5.41504H5.41521H5.41539H5.41556H5.41573H5.41591H5.41608H5.41625H5.41643H5.4166H5.41678H5.41695H5.41713H5.4173H5.41747H5.41765H5.41782H5.418H5.41817H5.41835H5.41852H5.41869H5.41887H5.41904H5.41922H5.41939H5.41957H5.41974H5.41992H5.42009H5.42027H5.42044H5.42062H5.42079H5.42097H5.42114H5.42132H5.42149H5.42167H5.42184H5.42202H5.42219H5.42237H5.42254H5.42272H5.42289H5.42307H5.42324H5.42342H5.4236H5.42377H5.42395H5.42412H5.4243H5.42447H5.42465H5.42482H5.425H5.42517H5.42535H5.42553H5.4257H5.42588H5.42605H5.42623H5.4264H5.42658H5.42676H5.42693H5.42711H5.42728H5.42746H5.42763H5.42781H5.42799H5.42816H5.42834H5.42851H5.42869H5.42886H5.42904H5.42922H5.42939H5.42957H5.42974H5.42992H5.43009H5.43027H5.43045H5.43062H5.4308H5.43097H5.43115H5.43132H5.4315H5.43168H5.43185H5.43203H5.4322H5.43238H5.43256H5.43273H5.43291H5.43308H5.43326H5.43343H5.43361H5.43378H5.43396H5.43414H5.43431H5.43449H5.43466H5.43484H5.43501H5.43519H5.43536H5.43554H5.43572H5.43589H5.43607H5.43624H5.43642H5.43659H5.43677H5.43694H5.43712H5.43729H5.43747H5.43764H5.43782H5.43799H5.43817H5.43835H5.43852H5.4387H5.43887H5.43905H5.43922H5.4394H5.43957H5.43974H5.43992H5.44009H5.44027H5.44044H5.44062H5.44079H5.44097H5.44114H5.44132H5.44149H5.44167H5.44184H5.44201H5.44219H5.44236H5.44254H5.44271H5.44289H5.44306H5.44323H5.44341H5.44358H5.44376H5.44393H5.4441H5.44428H5.44445H5.44463H5.4448H5.44497H5.44515H5.44532H5.44549H5.44567H5.44584H5.44601H5.44619H5.44636H5.44653H5.44671H5.44688H5.44705H5.44722H5.4474H5.44757H5.44774H5.44792H5.44809H5.44826H5.44843H5.44861H5.44878H5.44895H5.44912H5.44929H5.44947H5.44964H5.44981H5.44998H5.45015H5.45033H5.4505H5.45067H5.45084H5.45101H5.45118H5.45135H5.45153H5.4517H5.45187H5.45204H5.45221H5.45238H5.45255H5.45272H5.45289H5.45306H5.45323H5.4534H5.45358H5.45375H5.45392H5.45409H5.45426H5.45443H5.4546H5.45477H5.45493H5.4551H5.45527H5.45544H5.45561H5.45578H5.45595H5.45612H5.45629H5.45646H5.45663H5.45679H5.45696H5.45713H5.4573H5.45747H5.45764H5.4578H5.45797H5.45814H5.45831H5.45844ZM4.4803 13.133C4.48153 13.1317 4.48276 13.1305 4.484 13.1293L4.38454 13.2384C4.00029 13.6214 3.69019 13.7735 3.4732 13.8299C3.24095 13.8904 3.07659 13.8515 2.9841 13.8148L2.98114 13.8137C2.91318 13.7872 2.81329 13.7338 2.71217 13.621C2.77868 13.694 2.86772 13.7666 2.98378 13.8117C3.23798 13.9127 3.51263 13.8343 3.71469 13.7359C3.94479 13.6238 4.20094 13.4299 4.4803 13.133ZM13.3932 13.4739C13.2612 13.6869 13.1107 13.7757 13.0135 13.8157C12.9203 13.8522 12.7585 13.8898 12.5294 13.83C12.5271 13.8294 12.5247 13.8288 12.5223 13.8281C12.678 13.8681 12.8467 13.875 13.0078 13.8123L13.0079 13.8125L13.0189 13.8079C13.1814 13.7402 13.2901 13.619 13.3584 13.5195C13.4308 13.414 13.486 13.2921 13.528 13.1649C13.6123 12.9098 13.6599 12.5843 13.6599 12.1997V4.69301C13.6599 4.37247 13.6527 4.0771 13.6338 3.80662C13.6556 4.07052 13.6666 4.36472 13.6666 4.69301V12.1997C13.6666 12.8689 13.529 13.2547 13.3932 13.4739ZM10.5536 12.7189C10.6916 12.7115 10.8326 12.7309 10.9693 12.7763C10.836 12.7333 10.6919 12.7143 10.5397 12.7279C10.1826 12.7539 9.8635 12.9438 9.64659 13.233L9.64623 13.2335L8.97289 14.1335L8.97188 14.1348C8.70912 14.4886 8.34503 14.6663 7.99992 14.6663C7.67934 14.6663 7.34237 14.5129 7.08547 14.2076C7.319 14.4776 7.63691 14.6513 7.99659 14.6513C8.39075 14.6513 8.73475 14.4427 8.97252 14.1273L8.97361 14.1259L9.64554 13.2277C9.8859 12.9131 10.2151 12.737 10.5532 12.719L10.5536 12.7189ZM13.0274 1.9965C13.1318 2.10695 13.2239 2.23869 13.3033 2.39693C13.2312 2.26085 13.1441 2.13493 13.0385 2.02088C12.8949 1.86565 12.7293 1.7456 12.5461 1.65269C12.7431 1.74713 12.9002 1.86196 13.0274 1.9965ZM10.5199 1.33301C10.5329 1.33301 10.5459 1.33303 10.5588 1.33307C10.5437 1.33303 10.5285 1.33301 10.5133 1.33301H10.5199ZM2.33325 12.1997C2.33325 12.562 2.3748 12.8719 2.44928 13.1195C2.38165 12.897 2.33325 12.5985 2.33325 12.1997ZM2.95464 2.02088C2.90656 2.07282 2.86231 2.12722 2.82157 2.18393C2.86857 2.11538 2.91887 2.05314 2.97242 1.9965C3.06879 1.89456 3.18232 1.80394 3.31739 1.72493C3.18511 1.80569 3.06358 1.90317 2.95464 2.02088Z" fill="#2F27CE" stroke="#2F27CE"/>
<mask id="path-2-inside-1_1371_2308" fill="white">
<path d="M10.82 7.83301H7.15332C6.87999 7.83301 6.65332 7.60634 6.65332 7.33301C6.65332 7.05967 6.87999 6.83301 7.15332 6.83301H10.82C11.0933 6.83301 11.32 7.05967 11.32 7.33301C11.32 7.60634 11.0933 7.83301 10.82 7.83301Z"/>
</mask>
<path d="M10.82 7.83301H7.15332C6.87999 7.83301 6.65332 7.60634 6.65332 7.33301C6.65332 7.05967 6.87999 6.83301 7.15332 6.83301H10.82C11.0933 6.83301 11.32 7.05967 11.32 7.33301C11.32 7.60634 11.0933 7.83301 10.82 7.83301Z" fill="#2F27CE"/>
<path d="M10.82 6.83301H7.15332V8.83301H10.82V6.83301ZM7.15332 6.83301C7.43227 6.83301 7.65332 7.05406 7.65332 7.33301H5.65332C5.65332 8.15863 6.3277 8.83301 7.15332 8.83301V6.83301ZM7.65332 7.33301C7.65332 7.61196 7.43227 7.83301 7.15332 7.83301V5.83301C6.3277 5.83301 5.65332 6.50739 5.65332 7.33301H7.65332ZM7.15332 7.83301H10.82V5.83301H7.15332V7.83301ZM10.82 7.83301C10.541 7.83301 10.32 7.61196 10.32 7.33301H12.32C12.32 6.50739 11.6456 5.83301 10.82 5.83301V7.83301ZM10.32 7.33301C10.32 7.05406 10.541 6.83301 10.82 6.83301V8.83301C11.6456 8.83301 12.32 8.15863 12.32 7.33301H10.32Z" fill="#2F27CE" mask="url(#path-2-inside-1_1371_2308)"/>
<mask id="path-4-inside-2_1371_2308" fill="white">
<path d="M10.82 5.16699H7.15332C6.87999 5.16699 6.65332 4.94033 6.65332 4.66699C6.65332 4.39366 6.87999 4.16699 7.15332 4.16699H10.82C11.0933 4.16699 11.32 4.39366 11.32 4.66699C11.32 4.94033 11.0933 5.16699 10.82 5.16699Z"/>
</mask>
<path d="M10.82 5.16699H7.15332C6.87999 5.16699 6.65332 4.94033 6.65332 4.66699C6.65332 4.39366 6.87999 4.16699 7.15332 4.16699H10.82C11.0933 4.16699 11.32 4.39366 11.32 4.66699C11.32 4.94033 11.0933 5.16699 10.82 5.16699Z" fill="#2F27CE"/>
<path d="M10.82 4.16699H7.15332V6.16699H10.82V4.16699ZM7.15332 4.16699C7.43227 4.16699 7.65332 4.38804 7.65332 4.66699H5.65332C5.65332 5.49261 6.3277 6.16699 7.15332 6.16699V4.16699ZM7.65332 4.66699C7.65332 4.94594 7.43227 5.16699 7.15332 5.16699V3.16699C6.3277 3.16699 5.65332 3.84137 5.65332 4.66699H7.65332ZM7.15332 5.16699H10.82V3.16699H7.15332V5.16699ZM10.82 5.16699C10.541 5.16699 10.32 4.94594 10.32 4.66699H12.32C12.32 3.84137 11.6456 3.16699 10.82 3.16699V5.16699ZM10.32 4.66699C10.32 4.38804 10.541 4.16699 10.82 4.16699V6.16699C11.6456 6.16699 12.32 5.49261 12.32 4.66699H10.32Z" fill="#2F27CE" mask="url(#path-4-inside-2_1371_2308)"/>
<path d="M5.18669 4.83333C5.09616 4.83333 5.02002 4.75719 5.02002 4.66667C5.02002 4.57614 5.09616 4.5 5.18669 4.5C5.27721 4.5 5.35335 4.57614 5.35335 4.66667C5.35335 4.75719 5.27721 4.83333 5.18669 4.83333Z" fill="#2F27CE" stroke="#2F27CE"/>
<path d="M5.18669 7.50033C5.09616 7.50033 5.02002 7.42418 5.02002 7.33366C5.02002 7.24313 5.09616 7.16699 5.18669 7.16699C5.27721 7.16699 5.35335 7.24313 5.35335 7.33366C5.35335 7.42418 5.27721 7.50033 5.18669 7.50033Z" fill="#2F27CE" stroke="#2F27CE"/>
</svg>
