<svg width="17" height="16" viewBox="0 0 17 16" fill="none" xmlns="http://www.w3.org/2000/svg">
<mask id="path-1-inside-1_1371_3690" fill="white">
<path d="M14.5 5.16699H2.5C2.22667 5.16699 2 4.94033 2 4.66699C2 4.39366 2.22667 4.16699 2.5 4.16699H14.5C14.7733 4.16699 15 4.39366 15 4.66699C15 4.94033 14.7733 5.16699 14.5 5.16699Z"/>
</mask>
<path d="M14.5 5.16699H2.5C2.22667 5.16699 2 4.94033 2 4.66699C2 4.39366 2.22667 4.16699 2.5 4.16699H14.5C14.7733 4.16699 15 4.39366 15 4.66699C15 4.94033 14.7733 5.16699 14.5 5.16699Z" fill="#2F27CE"/>
<path d="M14.5 4.16699H2.5V6.16699H14.5V4.16699ZM2.5 4.16699C2.77895 4.16699 3 4.38804 3 4.66699H1C1 5.49261 1.67438 6.16699 2.5 6.16699V4.16699ZM3 4.66699C3 4.94594 2.77895 5.16699 2.5 5.16699V3.16699C1.67438 3.16699 1 3.84137 1 4.66699H3ZM2.5 5.16699H14.5V3.16699H2.5V5.16699ZM14.5 5.16699C14.221 5.16699 14 4.94594 14 4.66699H16C16 3.84137 15.3256 3.16699 14.5 3.16699V5.16699ZM14 4.66699C14 4.38804 14.221 4.16699 14.5 4.16699V6.16699C15.3256 6.16699 16 5.49261 16 4.66699H14Z" fill="#2F27CE" mask="url(#path-1-inside-1_1371_3690)"/>
<mask id="path-3-inside-2_1371_3690" fill="white">
<path d="M12.5 8.5H4.5C4.22667 8.5 4 8.27333 4 8C4 7.72667 4.22667 7.5 4.5 7.5H12.5C12.7733 7.5 13 7.72667 13 8C13 8.27333 12.7733 8.5 12.5 8.5Z"/>
</mask>
<path d="M12.5 8.5H4.5C4.22667 8.5 4 8.27333 4 8C4 7.72667 4.22667 7.5 4.5 7.5H12.5C12.7733 7.5 13 7.72667 13 8C13 8.27333 12.7733 8.5 12.5 8.5Z" fill="#2F27CE"/>
<path d="M12.5 7.5H4.5V9.5H12.5V7.5ZM4.5 7.5C4.77895 7.5 5 7.72105 5 8H3C3 8.82562 3.67438 9.5 4.5 9.5V7.5ZM5 8C5 8.27895 4.77895 8.5 4.5 8.5V6.5C3.67438 6.5 3 7.17438 3 8H5ZM4.5 8.5H12.5V6.5H4.5V8.5ZM12.5 8.5C12.221 8.5 12 8.27895 12 8H14C14 7.17438 13.3256 6.5 12.5 6.5V8.5ZM12 8C12 7.72105 12.221 7.5 12.5 7.5V9.5C13.3256 9.5 14 8.82562 14 8H12Z" fill="#2F27CE" mask="url(#path-3-inside-2_1371_3690)"/>
<mask id="path-5-inside-3_1371_3690" fill="white">
<path d="M9.83341 11.833H7.16675C6.89341 11.833 6.66675 11.6063 6.66675 11.333C6.66675 11.0597 6.89341 10.833 7.16675 10.833H9.83341C10.1067 10.833 10.3334 11.0597 10.3334 11.333C10.3334 11.6063 10.1067 11.833 9.83341 11.833Z"/>
</mask>
<path d="M9.83341 11.833H7.16675C6.89341 11.833 6.66675 11.6063 6.66675 11.333C6.66675 11.0597 6.89341 10.833 7.16675 10.833H9.83341C10.1067 10.833 10.3334 11.0597 10.3334 11.333C10.3334 11.6063 10.1067 11.833 9.83341 11.833Z" fill="#2F27CE"/>
<path d="M9.83341 10.833H7.16675V12.833H9.83341V10.833ZM7.16675 10.833C7.4457 10.833 7.66675 11.0541 7.66675 11.333H5.66675C5.66675 12.1586 6.34113 12.833 7.16675 12.833V10.833ZM7.66675 11.333C7.66675 11.612 7.4457 11.833 7.16675 11.833V9.83301C6.34113 9.83301 5.66675 10.5074 5.66675 11.333H7.66675ZM7.16675 11.833H9.83341V9.83301H7.16675V11.833ZM9.83341 11.833C9.55446 11.833 9.33341 11.612 9.33341 11.333H11.3334C11.3334 10.5074 10.659 9.83301 9.83341 9.83301V11.833ZM9.33341 11.333C9.33341 11.0541 9.55446 10.833 9.83341 10.833V12.833C10.659 12.833 11.3334 12.1586 11.3334 11.333H9.33341Z" fill="#2F27CE" mask="url(#path-5-inside-3_1371_3690)"/>
</svg>
