<svg width="16" height="16" viewBox="0 0 16 16" fill="none" xmlns="http://www.w3.org/2000/svg">
<path d="M9.99992 15.1666H5.99992C2.37992 15.1666 0.833252 13.6199 0.833252 9.99992V5.99992C0.833252 2.37992 2.37992 0.833252 5.99992 0.833252H9.99992C13.6199 0.833252 15.1666 2.37992 15.1666 5.99992V9.99992C15.1666 13.6199 13.6199 15.1666 9.99992 15.1666ZM5.99992 1.83325C2.92658 1.83325 1.83325 2.92658 1.83325 5.99992V9.99992C1.83325 13.0733 2.92658 14.1666 5.99992 14.1666H9.99992C13.0733 14.1666 14.1666 13.0733 14.1666 9.99992V5.99992C14.1666 2.92658 13.0733 1.83325 9.99992 1.83325H5.99992Z" fill="#A9791C"/>
<path d="M8.00004 10.1734C7.87337 10.1734 7.74671 10.1267 7.64671 10.0267L5.64671 8.02671C5.45338 7.83338 5.45338 7.51338 5.64671 7.32005C5.84004 7.12672 6.16004 7.12672 6.35337 7.32005L8.00004 8.96672L9.64671 7.32005C9.84004 7.12672 10.16 7.12672 10.3534 7.32005C10.5467 7.51338 10.5467 7.83338 10.3534 8.02671L8.35337 10.0267C8.25337 10.1267 8.12671 10.1734 8.00004 10.1734Z" fill="#A9791C"/>
<path d="M8 10.1734C7.72667 10.1734 7.5 9.94675 7.5 9.67342V4.34009C7.5 4.06675 7.72667 3.84009 8 3.84009C8.27333 3.84009 8.5 4.06675 8.5 4.34009V9.67342C8.5 9.95342 8.27333 10.1734 8 10.1734Z" fill="#A9791C"/>
<path d="M7.99996 12.1534C6.5933 12.1534 5.17996 11.9267 3.83996 11.48C3.57996 11.3934 3.43996 11.1067 3.52663 10.8467C3.6133 10.5867 3.89329 10.44 4.15996 10.5334C6.63996 11.36 9.36663 11.36 11.8466 10.5334C12.1066 10.4467 12.3933 10.5867 12.48 10.8467C12.5666 11.1067 12.4266 11.3934 12.1666 11.48C10.82 11.9334 9.40663 12.1534 7.99996 12.1534Z" fill="#A9791C"/>
</svg>
