<svg width="16" height="16" viewBox="0 0 16 16" fill="none" xmlns="http://www.w3.org/2000/svg">
<path d="M9.99992 15.1666H5.99992C2.37992 15.1666 0.833252 13.6199 0.833252 9.99992V5.99992C0.833252 2.37992 2.37992 0.833252 5.99992 0.833252H9.99992C13.6199 0.833252 15.1666 2.37992 15.1666 5.99992V9.99992C15.1666 13.6199 13.6199 15.1666 9.99992 15.1666ZM5.99992 1.83325C2.92659 1.83325 1.83325 2.92659 1.83325 5.99992V9.99992C1.83325 13.0733 2.92659 14.1666 5.99992 14.1666H9.99992C13.0733 14.1666 14.1666 13.0733 14.1666 9.99992V5.99992C14.1666 2.92659 13.0733 1.83325 9.99992 1.83325H5.99992Z" fill="#D42620"/>
<path d="M10 6.83989C9.87337 6.83989 9.74671 6.79322 9.64671 6.69322L8.00004 5.04656L6.35337 6.69322C6.16004 6.88655 5.84004 6.88655 5.64671 6.69322C5.45338 6.49988 5.45338 6.17989 5.64671 5.98655L7.64671 3.98655C7.84004 3.79322 8.16004 3.79322 8.35337 3.98655L10.3534 5.98655C10.5467 6.17989 10.5467 6.49988 10.3534 6.69322C10.2534 6.79322 10.1267 6.83989 10 6.83989Z" fill="#D42620"/>
<path d="M8 10.1734C7.72667 10.1734 7.5 9.94675 7.5 9.67342V4.34009C7.5 4.06675 7.72667 3.84009 8 3.84009C8.27333 3.84009 8.5 4.06675 8.5 4.34009V9.67342C8.5 9.95342 8.27333 10.1734 8 10.1734Z" fill="#D42620"/>
<path d="M7.99997 12.1534C6.5933 12.1534 5.17996 11.9267 3.83996 11.48C3.57996 11.3934 3.43996 11.1067 3.52663 10.8467C3.6133 10.5867 3.89997 10.44 4.15997 10.5334C6.63997 11.36 9.36664 11.36 11.8466 10.5334C12.1066 10.4467 12.3933 10.5867 12.48 10.8467C12.5666 11.1067 12.4266 11.3934 12.1666 11.48C10.82 11.9334 9.40663 12.1534 7.99997 12.1534Z" fill="#D42620"/>
</svg>
