<svg width="48" height="48" viewBox="0 0 48 48" fill="none" xmlns="http://www.w3.org/2000/svg">
<path d="M43.48 15.6186V15.62V32.38C43.48 35.9206 42.4266 38.6863 40.5464 40.5664C38.6663 42.4466 35.9006 43.5 32.36 43.5H15.62C12.0794 43.5 9.31384 42.4466 7.43377 40.5642C5.55364 38.6817 4.5 35.9109 4.5 32.36V15.62C4.5 12.0794 5.55343 9.31368 7.43355 7.43355C9.31368 5.55343 12.0794 4.5 15.62 4.5H32.38C35.9207 4.5 38.6862 5.55347 40.5637 7.43333C42.4411 9.31309 43.4897 12.0784 43.48 15.6186ZM33.9136 19.7536L33.9136 19.7536L33.9195 19.7475C34.6836 18.9571 34.6921 17.705 33.9136 16.9264C33.1383 16.1512 31.8617 16.1512 31.0864 16.9264L21.16 26.8529L16.9136 22.6064C16.1383 21.8312 14.8617 21.8312 14.0864 22.6064C13.3112 23.3817 13.3112 24.6583 14.0864 25.4336L19.7464 31.0936C20.1191 31.4663 20.6259 31.68 21.16 31.68C21.6941 31.68 22.2009 31.4663 22.5736 31.0936L33.9136 19.7536Z" fill="#0CAD41" stroke="#0CAD41"/>
</svg>
